<?xml version="1.0" encoding="UTF-8" standalone="no"?>
<!-- Generator: Adobe Illustrator 16.0.0, SVG Export Plug-In . SVG Version: 6.00 Build 0)  -->

<svg
   version="1.1"
   id="Layer_1"
   x="0px"
   y="0px"
   width="601.63434"
   height="139.27725"
   viewBox="0 0 601.63434 139.27725"
   enable-background="new 0 0 654.565 139"
   xml:space="preserve"
   xmlns="http://www.w3.org/2000/svg"
   xmlns:svg="http://www.w3.org/2000/svg"><defs
   id="defs687" />
<g
   id="g630"
   transform="translate(3.0170002,-5.5100002)">
	<path
   fill="#8d5524"
   d="m 44.374,68.498 c 0.58,1.017 0.943,2.323 0.943,3.63 0,1.162 -0.29,2.25 -0.799,3.195 l -17.642,30.274 c -0.653,1.017 -1.452,1.452 -2.323,1.452 -0.581,0 -1.234,-0.217 -1.815,-0.507 -0.943,-0.509 -1.597,-1.234 -1.597,-2.179 0,-0.436 0.145,-1.016 0.508,-1.524 L 38.493,74.017 c 0.29,-0.653 0.508,-1.308 0.508,-1.96 0,-0.726 -0.218,-1.379 -0.508,-2.033 L 21.649,41.274 c -0.363,-0.581 -0.508,-1.089 -0.508,-1.597 0,-0.944 0.653,-1.67 1.597,-2.178 0.581,-0.291 1.162,-0.508 1.742,-0.508 0.944,0 1.743,0.436 2.396,1.524 z"
   id="path628" />
</g>
<g
   id="g634"
   transform="translate(3.0170002,-5.5100002)">
	<path
   fill="#c68642"
   d="m 109.853,107.42 h -9 v -1.44 h 7.56 V 37.435 h -7.56 v -1.44 h 9 z"
   id="path632" />
</g>
<g
   id="g638"
   transform="translate(3.0170002,-5.5100002)">
	<path
   fill="#ffdbac"
   d="m 80.788,106.76 c 1.69,-6.004 2.855,-12.211 3.497,-18.623 0.641,-6.411 0.962,-12.853 0.962,-19.323 0,-6.003 -0.394,-11.73 -1.18,-17.181 -0.787,-5.449 -1.88,-10.739 -3.279,-15.869 h 2.973 c 1.749,2.623 3.279,5.377 4.591,8.263 1.312,2.886 2.404,5.902 3.278,9.049 0.815,3.147 1.442,6.267 1.88,9.355 0.438,3.09 0.656,6.033 0.656,8.831 0,2.973 -0.234,6.033 -0.7,9.181 -0.467,3.147 -1.137,6.295 -2.011,9.443 -1.866,6.295 -4.431,11.919 -7.694,16.874 z"
   id="path636" />
</g>
<g
   id="g642"
   transform="translate(3.0170002,-5.5100002)">
	<path
   fill="#e0ac69"
   d="m 72.068,78.474 c -0.377,0 -0.795,0.04 -1.252,0.121 -0.458,0.08 -0.876,0.242 -1.252,0.484 -0.377,0.242 -0.687,0.62 -0.929,1.131 -0.242,0.513 -0.363,1.172 -0.363,1.979 v 11.633 c 0,8.831 -4.013,13.248 -12.037,13.248 h -9.37 V 93.418 h 6.059 c 0.484,0 0.794,-0.147 0.929,-0.444 0.134,-0.295 0.202,-0.605 0.202,-0.929 V 80.574 c 0,-1.723 0.255,-3.136 0.768,-4.24 0.511,-1.104 1.09,-1.979 1.736,-2.626 0.754,-0.753 1.616,-1.319 2.585,-1.696 C 58.175,71.636 57.313,71.071 56.559,70.316 55.913,69.67 55.333,68.795 54.823,67.691 54.31,66.588 54.055,65.174 54.055,63.45 V 51.978 c 0,-0.323 -0.068,-0.633 -0.202,-0.929 -0.135,-0.295 -0.444,-0.444 -0.929,-0.444 H 46.865 V 36.952 h 9.37 c 8.024,0 12.037,4.417 12.037,13.249 v 11.632 c 0,0.808 0.121,1.468 0.363,1.979 0.242,0.512 0.552,0.889 0.929,1.131 0.376,0.242 0.794,0.404 1.252,0.485 0.457,0.081 0.875,0.121 1.252,0.121 h 1.777 v 12.925 z"
   id="path640" />
</g>
<line
   fill="none"
   stroke="#bd947a"
   stroke-width="3"
   stroke-miterlimit="10"
   x1="20"
   y1="21.5"
   x2="113"
   y2="21.5"
   id="line644" />
<line
   fill="none"
   stroke="#bd947a"
   stroke-width="3"
   stroke-miterlimit="10"
   x1="20"
   y1="110.5"
   x2="113"
   y2="110.5"
   id="line646" />




<g
   aria-label="beauty"
   transform="scale(0.94647459,1.0565524)"
   id="text113066"
   style="font-weight:bold;font-size:100.112px;line-height:1.25;font-family:D-DIN;-inkscape-font-specification:'D-DIN, Bold';fill:#e0ac69"><path
     d="m 391.30272,97.876091 q -2.80313,0 -5.0056,-1.101232 -2.10235,-1.101232 -4.10459,-3.403808 v 3.704144 H 370.97999 V 27.997916 h 11.61299 v 20.422848 q 1.40157,-2.402688 3.60403,-3.704144 2.30258,-1.301456 5.30594,-1.301456 5.80649,0 9.2103,4.104592 3.40381,4.104592 3.40381,13.014559 v 20.222624 q 0,8.909968 -3.60403,13.01456 -3.50392,4.104592 -9.21031,4.104592 z m -3.80425,-10.411648 q 2.5028,0 3.70414,-2.00224 1.30146,-2.00224 1.30146,-6.607392 V 62.436443 q 0,-4.505039 -1.30146,-6.507279 -1.20134,-2.102352 -3.70414,-2.102352 -2.5028,0 -3.80426,2.102352 -1.30145,2.00224 -1.30145,6.507279 v 16.418368 q 0,8.609632 5.10571,8.609632 z"
     style="font-stretch:condensed;font-family:'D-DIN Condensed';-inkscape-font-specification:'D-DIN Condensed, Bold Condensed'"
     id="path359" /><path
     d="m 423.33855,74.750219 v 4.805376 q 0,8.109072 5.20582,8.109072 5.10572,0 5.10572,-6.707504 v -0.50056 h 11.21254 v 0.600672 q 0,8.309296 -4.2047,12.614112 -4.20471,4.204704 -12.11356,4.204704 -8.00896,0 -12.41388,-4.805376 -4.40493,-4.805376 -4.40493,-15.917808 V 64.238459 q 0,-10.812095 4.10459,-15.817695 4.2047,-5.0056 12.41389,-5.0056 8.10907,0 12.514,5.105712 4.50504,5.105712 4.50504,15.717583 v 10.51176 z m 5.10571,-20.923407 q -2.5028,0 -3.80425,2.102352 -1.30146,2.00224 -1.30146,6.507279 v 3.904368 h 10.31154 v -3.904368 q 0,-4.505039 -1.30146,-6.507279 -1.30146,-2.102352 -3.90437,-2.102352 z"
     style="font-stretch:condensed;font-family:'D-DIN Condensed';-inkscape-font-specification:'D-DIN Condensed, Bold Condensed'"
     id="path361" /><path
     d="m 469.28988,43.415164 q 7.70863,0 11.91333,4.605152 4.30482,4.50504 4.30482,12.213663 v 36.841216 h -10.8121 v -4.404928 q -2.10235,2.703024 -4.10459,4.00448 -2.00224,1.201344 -5.20582,1.201344 -6.6074,0 -10.0112,-4.304816 -3.3037,-4.304816 -3.3037,-12.01344 0,-7.408288 4.50504,-11.412768 4.50504,-4.104592 12.91445,-4.104592 h 4.40493 v -6.707504 q 0,-2.803135 -1.30146,-4.204703 -1.20134,-1.50168 -3.60403,-1.50168 -2.20247,0 -3.50392,1.401568 -1.30146,1.401568 -1.30146,3.804255 v 0.800896 h -10.71198 v -0.400448 q 0,-7.808735 4.40493,-11.813215 4.40492,-4.00448 11.41276,-4.00448 z m -0.50056,44.349615 q 2.20247,0 3.60404,-1.701904 1.50168,-1.802016 1.50168,-4.805376 v -7.107952 h -3.00336 q -3.50392,0 -5.40605,1.601792 -1.80202,1.601792 -1.80202,5.305936 0,3.303696 1.30146,5.0056 1.30145,1.701904 3.80425,1.701904 z"
     style="font-stretch:condensed;font-family:'D-DIN Condensed';-inkscape-font-specification:'D-DIN Condensed, Bold Condensed'"
     id="path363" /><path
     d="m 510.13546,97.876091 q -9.51064,0 -13.01456,-4.605152 -3.4038,-4.705264 -3.4038,-13.915568 V 44.21606 h 11.61299 v 32.736623 q 0,4.104592 0.20022,6.106832 0.30034,2.00224 1.30146,3.203584 1.00112,1.201344 3.30369,1.201344 2.30258,0 3.3037,-1.00112 1.00112,-1.101232 1.20134,-3.103472 0.30034,-2.00224 0.30034,-6.407168 V 44.21606 h 11.61299 v 35.139311 q 0,6.307056 -1.40157,10.311536 -1.40157,3.904368 -5.0056,6.106832 -3.50392,2.102352 -10.0112,2.102352 z"
     style="font-stretch:condensed;font-family:'D-DIN Condensed';-inkscape-font-specification:'D-DIN Condensed, Bold Condensed'"
     id="path365" /><path
     d="m 549.07898,52.325132 v 27.630911 q 0,6.707504 6.70751,6.707504 h 0.40045 v 10.411648 h -0.40045 q -9.01008,0 -13.71534,-3.904368 -4.60516,-4.00448 -4.60516,-12.514 V 52.325132 h -5.9066 V 44.21606 h 5.9066 v -9.310416 l 11.61299,-4.705264 v 14.01568 h 8.40941 v 8.109072 z"
     style="font-stretch:condensed;font-family:'D-DIN Condensed';-inkscape-font-specification:'D-DIN Condensed, Bold Condensed'"
     id="path367" /><path
     d="m 599.73548,44.21606 -14.31602,56.66339 q -1.20134,4.90549 -3.80426,7.5084 -2.5028,2.60291 -6.40716,3.50392 -3.90437,1.00112 -10.0112,1.00112 h -0.40045 v -10.21142 h 4.2047 q 5.20583,0 6.70751,-2.703027 L 560.99213,44.21606 h 12.81434 l 7.10795,32.135951 6.60739,-32.135951 z"
     style="font-stretch:condensed;font-family:'D-DIN Condensed';-inkscape-font-specification:'D-DIN Condensed, Bold Condensed'"
     id="path369" /></g><g
   aria-label="hidden"
   transform="scale(0.94647459,1.0565524)"
   id="text113066-7"
   style="font-weight:bold;font-size:100.112px;line-height:1.25;font-family:D-DIN;-inkscape-font-specification:'D-DIN, Bold';fill:#8d5524"><path
     d="m 143.09544,27.873633 h 11.61299 v 19.621952 q 3.70414,-4.204704 8.30929,-4.204704 6.70751,0 9.81098,4.104592 3.10347,4.104592 3.10347,11.813216 V 96.950912 H 164.31918 V 59.308801 q 0,-2.703024 -1.40157,-4.104592 -1.30145,-1.50168 -3.40381,-1.50168 -2.20246,0 -3.50392,1.50168 -1.30145,1.401568 -1.30145,4.104592 v 37.642111 h -11.61299 z"
     style="font-stretch:condensed;font-family:'D-DIN Condensed';-inkscape-font-specification:'D-DIN Condensed, Bold Condensed'"
     id="path328" /><path
     d="m 184.54179,44.091777 h 11.61299 v 52.859135 h -11.61299 z m 0,-16.218144 h 11.61299 v 9.710864 h -11.61299 z"
     style="font-stretch:condensed;font-family:'D-DIN Condensed';-inkscape-font-specification:'D-DIN Condensed, Bold Condensed'"
     id="path330" /><path
     d="m 217.37846,97.751808 q -5.80649,0 -9.41052,-4.104592 -3.50392,-4.104591 -3.50392,-13.014559 V 60.410033 q 0,-8.909968 3.4038,-13.01456 3.50392,-4.104592 9.31042,-4.104592 2.90325,0 5.20582,1.301456 2.30258,1.301456 3.70415,3.704144 V 27.873633 h 11.51288 v 69.077279 h -11.11243 v -3.704144 q -3.80426,4.50504 -9.1102,4.50504 z m 3.80426,-10.411647 q 5.10571,0 5.10571,-8.609632 V 62.312161 q 0,-4.50504 -1.30145,-6.50728 -1.30146,-2.102352 -3.90437,-2.102352 -2.5028,0 -3.80426,2.102352 -1.20134,2.00224 -1.20134,6.50728 v 16.418368 q 0,4.605152 1.20134,6.607392 1.30146,2.00224 3.90437,2.00224 z"
     style="font-stretch:condensed;font-family:'D-DIN Condensed';-inkscape-font-specification:'D-DIN Condensed, Bold Condensed'"
     id="path332" /><path
     d="m 258.42437,97.751808 q -5.8065,0 -9.41053,-4.104592 -3.50392,-4.104591 -3.50392,-13.014559 V 60.410033 q 0,-8.909968 3.40381,-13.01456 3.50392,-4.104592 9.31042,-4.104592 2.90324,0 5.20582,1.301456 2.30258,1.301456 3.70414,3.704144 V 27.873633 h 11.51288 v 69.077279 h -11.11243 v -3.704144 q -3.80425,4.50504 -9.11019,4.50504 z m 3.80426,-10.411647 q 5.10571,0 5.10571,-8.609632 V 62.312161 q 0,-4.50504 -1.30146,-6.50728 -1.30145,-2.102352 -3.90437,-2.102352 -2.5028,0 -3.80425,2.102352 -1.20135,2.00224 -1.20135,6.50728 v 16.418368 q 0,4.605152 1.20135,6.607392 1.30145,2.00224 3.90437,2.00224 z"
     style="font-stretch:condensed;font-family:'D-DIN Condensed';-inkscape-font-specification:'D-DIN Condensed, Bold Condensed'"
     id="path334" /><path
     d="m 298.16882,74.625937 v 4.805376 q 0,8.109072 5.20582,8.109072 5.10572,0 5.10572,-6.707504 v -0.50056 h 11.21254 v 0.600672 q 0,8.309296 -4.2047,12.614111 -4.20471,4.204704 -12.11356,4.204704 -8.00896,0 -12.41388,-4.805376 -4.40493,-4.805375 -4.40493,-15.917807 V 64.114177 q 0,-10.812096 4.10459,-15.817696 4.2047,-5.0056 12.41389,-5.0056 8.10907,0 12.514,5.105712 4.50504,5.105712 4.50504,15.717584 v 10.51176 z m 5.10571,-20.923408 q -2.5028,0 -3.80425,2.102352 -1.30146,2.00224 -1.30146,6.50728 v 3.904368 h 10.31154 v -3.904368 q 0,-4.50504 -1.30146,-6.50728 -1.30146,-2.102352 -3.90437,-2.102352 z"
     style="font-stretch:condensed;font-family:'D-DIN Condensed';-inkscape-font-specification:'D-DIN Condensed, Bold Condensed'"
     id="path336" /><path
     d="m 328.00213,44.091777 h 11.11243 v 3.904368 q 3.70415,-4.705264 8.80986,-4.705264 12.91445,0 12.91445,15.917808 v 37.742223 h -11.613 V 59.308801 q 0,-2.703024 -1.40156,-4.104592 -1.30146,-1.50168 -3.40381,-1.50168 -2.20247,0 -3.50392,1.50168 -1.30146,1.401568 -1.30146,4.104592 v 37.642111 h -11.61299 z"
     style="font-stretch:condensed;font-family:'D-DIN Condensed';-inkscape-font-specification:'D-DIN Condensed, Bold Condensed'"
     id="path338" /></g></svg>
