<?xml version="1.0" encoding="UTF-8" standalone="no"?>
<!-- Generator: Adobe Illustrator 16.0.0, SVG Export Plug-In . SVG Version: 6.00 Build 0)  -->

<svg
   version="1.1"
   id="Layer_1"
   x="0px"
   y="0px"
   width="601.63434"
   height="139.27725"
   viewBox="0 0 601.63434 139.27725"
   enable-background="new 0 0 654.565 139"
   xml:space="preserve"
   sodipodi:docname="wab-logo-landscape.svg"
   inkscape:version="1.1 (c68e22c387, 2021-05-23)"
   xmlns:inkscape="http://www.inkscape.org/namespaces/inkscape"
   xmlns:sodipodi="http://sodipodi.sourceforge.net/DTD/sodipodi-0.dtd"
   xmlns="http://www.w3.org/2000/svg"
   xmlns:svg="http://www.w3.org/2000/svg"><defs
   id="defs687" /><sodipodi:namedview
   id="namedview685"
   pagecolor="#ffffff"
   bordercolor="#666666"
   borderopacity="1.0"
   inkscape:pageshadow="2"
   inkscape:pageopacity="0.0"
   inkscape:pagecheckerboard="0"
   showgrid="false"
   inkscape:zoom="2.8284271"
   inkscape:cx="301.75782"
   inkscape:cy="148.84598"
   inkscape:window-width="2489"
   inkscape:window-height="1357"
   inkscape:window-x="1983"
   inkscape:window-y="44"
   inkscape:window-maximized="0"
   inkscape:current-layer="Layer_1"
   showguides="true"
   inkscape:snap-page="false"
   fit-margin-top="20"
   fit-margin-left="20"
   fit-margin-right="20"
   fit-margin-bottom="20" />
<g
   id="g630"
   transform="translate(3.0170002,-5.5100002)">
	<path
   fill="#8d5524"
   d="m 44.374,68.498 c 0.58,1.017 0.943,2.323 0.943,3.63 0,1.162 -0.29,2.25 -0.799,3.195 l -17.642,30.274 c -0.653,1.017 -1.452,1.452 -2.323,1.452 -0.581,0 -1.234,-0.217 -1.815,-0.507 -0.943,-0.509 -1.597,-1.234 -1.597,-2.179 0,-0.436 0.145,-1.016 0.508,-1.524 L 38.493,74.017 c 0.29,-0.653 0.508,-1.308 0.508,-1.96 0,-0.726 -0.218,-1.379 -0.508,-2.033 L 21.649,41.274 c -0.363,-0.581 -0.508,-1.089 -0.508,-1.597 0,-0.944 0.653,-1.67 1.597,-2.178 0.581,-0.291 1.162,-0.508 1.742,-0.508 0.944,0 1.743,0.436 2.396,1.524 z"
   id="path628" />
</g>
<g
   id="g634"
   transform="translate(3.0170002,-5.5100002)">
	<path
   fill="#c68642"
   d="m 109.853,107.42 h -9 v -1.44 h 7.56 V 37.435 h -7.56 v -1.44 h 9 z"
   id="path632" />
</g>
<g
   id="g638"
   transform="translate(3.0170002,-5.5100002)">
	<path
   fill="#ffdbac"
   d="m 80.788,106.76 c 1.69,-6.004 2.855,-12.211 3.497,-18.623 0.641,-6.411 0.962,-12.853 0.962,-19.323 0,-6.003 -0.394,-11.73 -1.18,-17.181 -0.787,-5.449 -1.88,-10.739 -3.279,-15.869 h 2.973 c 1.749,2.623 3.279,5.377 4.591,8.263 1.312,2.886 2.404,5.902 3.278,9.049 0.815,3.147 1.442,6.267 1.88,9.355 0.438,3.09 0.656,6.033 0.656,8.831 0,2.973 -0.234,6.033 -0.7,9.181 -0.467,3.147 -1.137,6.295 -2.011,9.443 -1.866,6.295 -4.431,11.919 -7.694,16.874 z"
   id="path636" />
</g>
<g
   id="g642"
   transform="translate(3.0170002,-5.5100002)">
	<path
   fill="#e0ac69"
   d="m 72.068,78.474 c -0.377,0 -0.795,0.04 -1.252,0.121 -0.458,0.08 -0.876,0.242 -1.252,0.484 -0.377,0.242 -0.687,0.62 -0.929,1.131 -0.242,0.513 -0.363,1.172 -0.363,1.979 v 11.633 c 0,8.831 -4.013,13.248 -12.037,13.248 h -9.37 V 93.418 h 6.059 c 0.484,0 0.794,-0.147 0.929,-0.444 0.134,-0.295 0.202,-0.605 0.202,-0.929 V 80.574 c 0,-1.723 0.255,-3.136 0.768,-4.24 0.511,-1.104 1.09,-1.979 1.736,-2.626 0.754,-0.753 1.616,-1.319 2.585,-1.696 C 58.175,71.636 57.313,71.071 56.559,70.316 55.913,69.67 55.333,68.795 54.823,67.691 54.31,66.588 54.055,65.174 54.055,63.45 V 51.978 c 0,-0.323 -0.068,-0.633 -0.202,-0.929 -0.135,-0.295 -0.444,-0.444 -0.929,-0.444 H 46.865 V 36.952 h 9.37 c 8.024,0 12.037,4.417 12.037,13.249 v 11.632 c 0,0.808 0.121,1.468 0.363,1.979 0.242,0.512 0.552,0.889 0.929,1.131 0.376,0.242 0.794,0.404 1.252,0.485 0.457,0.081 0.875,0.121 1.252,0.121 h 1.777 v 12.925 z"
   id="path640" />
</g>
<line
   fill="none"
   stroke="#bd947a"
   stroke-width="3"
   stroke-miterlimit="10"
   x1="20"
   y1="21.5"
   x2="113"
   y2="21.5"
   id="line644" />
<line
   fill="none"
   stroke="#bd947a"
   stroke-width="3"
   stroke-miterlimit="10"
   x1="20"
   y1="110.5"
   x2="113"
   y2="110.5"
   id="line646" />



<g
   id="g682"
   transform="translate(-3.1319183,128.82567)">
	<path
   fill="#8d5524"
   d="m 182.551,46.705 -12.254,51.773 h -9.189 l -5.719,-30.737 h -0.205 l -5.718,30.737 h -9.19 L 128.022,46.705 h 11.029 l 6.331,32.167 h 0.205 l 5.82,-32.167 h 8.17 l 5.514,32.167 h 0.203 l 6.23,-32.167 z"
   id="path654" />
	<path
   fill="#8d5524"
   d="m 216.454,76.523 h -20.627 v 7.046 c 0,1.634 0.459,2.894 1.378,3.778 0.919,0.886 2.16,1.328 3.728,1.328 1.974,0 3.283,-0.578 3.932,-1.736 0.646,-1.157 1.037,-2.313 1.174,-3.472 h 10.416 c 0,4.562 -1.396,8.238 -4.187,11.029 -1.363,1.43 -2.997,2.553 -4.901,3.37 -1.907,0.817 -4.052,1.226 -6.434,1.226 -3.268,0 -6.043,-0.68 -8.322,-2.042 -2.282,-1.361 -4.034,-3.166 -5.26,-5.412 -0.749,-1.361 -1.26,-2.926 -1.531,-4.697 -0.272,-1.77 -0.408,-3.71 -0.408,-5.821 V 64.065 c 0,-2.109 0.136,-4.049 0.408,-5.821 0.271,-1.769 0.782,-3.334 1.531,-4.697 1.226,-2.247 2.978,-4.049 5.26,-5.412 2.279,-1.361 5.055,-2.042 8.322,-2.042 2.382,0 4.544,0.408 6.484,1.225 1.94,0.817 3.59,1.94 4.952,3.37 2.723,3.063 4.085,6.91 4.085,11.539 z m -20.627,-8.169 h 10.211 v -5.923 c 0,-1.974 -0.459,-3.455 -1.378,-4.442 -0.92,-0.986 -2.162,-1.481 -3.728,-1.481 -1.567,0 -2.809,0.495 -3.728,1.481 -0.919,0.987 -1.378,2.468 -1.378,4.442 v 5.923 z"
   id="path656" />
	<path
   fill="#ffdbac"
   d="m 262.812,98.478 v -5.31 h -0.204 c -1.362,1.907 -2.741,3.37 -4.136,4.391 -1.396,1.021 -3.354,1.532 -5.871,1.532 -1.226,0 -2.469,-0.188 -3.728,-0.562 -1.261,-0.374 -2.469,-1.072 -3.625,-2.094 -1.158,-0.952 -2.094,-2.331 -2.809,-4.136 -0.715,-1.803 -1.072,-4.135 -1.072,-6.995 0,-2.926 0.238,-5.497 0.715,-7.71 0.476,-2.211 1.361,-4.067 2.655,-5.565 1.226,-1.429 2.893,-2.501 5.004,-3.216 2.109,-0.715 4.799,-1.072 8.066,-1.072 0.34,0 0.715,0 1.124,0 0.408,0 0.781,0.035 1.123,0.102 0.34,0.068 0.748,0.102 1.226,0.102 0.476,0 0.985,0.035 1.531,0.102 v -5.412 c 0,-1.77 -0.375,-3.232 -1.123,-4.391 -0.75,-1.157 -2.111,-1.736 -4.085,-1.736 -1.362,0 -2.604,0.444 -3.727,1.328 -1.124,0.885 -1.856,2.18 -2.196,3.88 h -10.109 c 0.271,-4.629 1.839,-8.374 4.697,-11.233 1.361,-1.361 2.995,-2.433 4.902,-3.216 1.904,-0.782 4.049,-1.174 6.433,-1.174 2.178,0 4.221,0.341 6.127,1.021 1.905,0.681 3.574,1.703 5.004,3.063 1.361,1.362 2.451,3.063 3.268,5.106 0.817,2.042 1.226,4.426 1.226,7.148 v 36.047 z m 0,-22.261 c -1.158,-0.204 -2.11,-0.306 -2.859,-0.306 -2.246,0 -4.171,0.528 -5.77,1.583 -1.6,1.056 -2.399,2.979 -2.399,5.77 0,1.976 0.476,3.574 1.43,4.799 0.952,1.226 2.28,1.838 3.982,1.838 1.77,0 3.148,-0.578 4.136,-1.736 0.986,-1.157 1.48,-2.791 1.48,-4.902 z"
   id="path658" />
	<path
   fill="#ffdbac"
   d="M 280.887,98.478 V 46.705 h 10.416 v 5.515 c 2.109,-1.905 4.187,-3.403 6.229,-4.493 2.043,-1.088 4.561,-1.634 7.557,-1.634 v 11.028 c -1.021,-0.409 -2.077,-0.613 -3.165,-0.613 -1.09,0 -2.265,0.188 -3.523,0.562 -1.261,0.375 -2.399,1.005 -3.421,1.889 -1.09,0.886 -1.976,2.042 -2.655,3.472 -0.681,1.43 -1.021,3.201 -1.021,5.31 v 30.737 z"
   id="path660" />
	<path
   fill="#ffdbac"
   d="m 339.399,76.523 h -20.627 v 7.046 c 0,1.634 0.459,2.894 1.378,3.778 0.919,0.886 2.16,1.328 3.728,1.328 1.974,0 3.283,-0.578 3.932,-1.736 0.646,-1.157 1.037,-2.313 1.174,-3.472 H 339.4 c 0,4.562 -1.396,8.238 -4.187,11.029 -1.363,1.43 -2.997,2.553 -4.901,3.37 -1.907,0.817 -4.052,1.226 -6.434,1.226 -3.268,0 -6.043,-0.68 -8.322,-2.042 -2.282,-1.361 -4.034,-3.166 -5.26,-5.412 -0.749,-1.361 -1.26,-2.926 -1.531,-4.697 -0.272,-1.77 -0.408,-3.71 -0.408,-5.821 V 64.065 c 0,-2.109 0.136,-4.049 0.408,-5.821 0.271,-1.769 0.782,-3.334 1.531,-4.697 1.226,-2.247 2.978,-4.049 5.26,-5.412 2.279,-1.361 5.055,-2.042 8.322,-2.042 2.382,0 4.544,0.408 6.484,1.225 1.94,0.817 3.59,1.94 4.952,3.37 2.723,3.063 4.085,6.91 4.085,11.539 z m -20.627,-8.169 h 10.211 v -5.923 c 0,-1.974 -0.459,-3.455 -1.378,-4.442 -0.92,-0.986 -2.162,-1.481 -3.728,-1.481 -1.567,0 -2.809,0.495 -3.728,1.481 -0.919,0.987 -1.378,2.468 -1.378,4.442 v 5.923 z"
   id="path662" />
	<path
   fill="#e0ac69"
   d="M 366.05,98.478 V 25.771 h 10.416 v 25.631 h 0.204 c 1.156,-1.701 2.535,-3.012 4.136,-3.931 1.599,-0.919 3.421,-1.378 5.463,-1.378 2.518,0 4.476,0.443 5.872,1.327 1.395,0.886 2.535,2.009 3.421,3.37 0.68,1.09 1.123,2.519 1.327,4.289 0.204,1.771 0.307,4.528 0.307,8.271 v 19.708 c 0,2.859 -0.138,5.141 -0.409,6.842 -0.272,1.702 -0.715,3.132 -1.327,4.289 -1.771,3.268 -4.8,4.902 -9.088,4.902 -2.589,0 -4.562,-0.511 -5.923,-1.532 -1.363,-1.021 -2.69,-2.28 -3.982,-3.778 v 4.697 z m 20.729,-35.843 c 0,-1.634 -0.357,-3.063 -1.072,-4.289 -0.715,-1.226 -2.06,-1.838 -4.033,-1.838 -1.499,0 -2.741,0.528 -3.728,1.583 -0.988,1.056 -1.48,2.399 -1.48,4.033 v 20.117 c 0,1.907 0.475,3.456 1.43,4.646 0.952,1.192 2.211,1.787 3.778,1.787 1.769,0 3.063,-0.646 3.88,-1.94 0.817,-1.292 1.226,-2.995 1.226,-5.106 V 62.635 Z"
   id="path664" />
	<path
   fill="#e0ac69"
   d="M 435.896,76.523 H 415.27 v 7.046 c 0,1.634 0.459,2.894 1.378,3.778 0.919,0.886 2.16,1.328 3.728,1.328 1.974,0 3.283,-0.578 3.932,-1.736 0.646,-1.157 1.037,-2.313 1.174,-3.472 h 10.416 c 0,4.562 -1.396,8.238 -4.187,11.029 -1.363,1.43 -2.997,2.553 -4.901,3.37 -1.907,0.817 -4.052,1.226 -6.434,1.226 -3.268,0 -6.043,-0.68 -8.322,-2.042 -2.282,-1.361 -4.034,-3.166 -5.26,-5.412 -0.749,-1.361 -1.26,-2.926 -1.531,-4.697 -0.272,-1.77 -0.408,-3.71 -0.408,-5.821 V 64.065 c 0,-2.109 0.136,-4.049 0.408,-5.821 0.271,-1.769 0.782,-3.334 1.531,-4.697 1.226,-2.247 2.978,-4.049 5.26,-5.412 2.279,-1.361 5.055,-2.042 8.322,-2.042 2.382,0 4.544,0.408 6.484,1.225 1.94,0.817 3.59,1.94 4.952,3.37 2.723,3.063 4.085,6.91 4.085,11.539 V 76.523 Z M 415.27,68.354 h 10.211 v -5.923 c 0,-1.974 -0.459,-3.455 -1.378,-4.442 -0.92,-0.986 -2.162,-1.481 -3.728,-1.481 -1.567,0 -2.809,0.495 -3.728,1.481 -0.919,0.987 -1.378,2.468 -1.378,4.442 v 5.923 z"
   id="path666" />
	<path
   fill="#e0ac69"
   d="m 463.263,98.478 v -5.31 h -0.204 c -1.362,1.907 -2.741,3.37 -4.136,4.391 -1.396,1.021 -3.354,1.532 -5.871,1.532 -1.226,0 -2.469,-0.188 -3.728,-0.562 -1.261,-0.374 -2.469,-1.072 -3.625,-2.094 -1.158,-0.952 -2.094,-2.331 -2.809,-4.136 -0.715,-1.803 -1.072,-4.135 -1.072,-6.995 0,-2.926 0.238,-5.497 0.715,-7.71 0.476,-2.211 1.361,-4.067 2.655,-5.565 1.226,-1.429 2.893,-2.501 5.004,-3.216 2.109,-0.715 4.799,-1.072 8.066,-1.072 0.34,0 0.715,0 1.124,0 0.408,0 0.781,0.035 1.123,0.102 0.34,0.068 0.748,0.102 1.226,0.102 0.476,0 0.985,0.035 1.531,0.102 v -5.412 c 0,-1.77 -0.375,-3.232 -1.123,-4.391 -0.75,-1.157 -2.111,-1.736 -4.085,-1.736 -1.362,0 -2.604,0.444 -3.727,1.328 -1.124,0.885 -1.856,2.18 -2.196,3.88 h -10.109 c 0.271,-4.629 1.839,-8.374 4.697,-11.233 1.361,-1.361 2.995,-2.433 4.902,-3.216 1.904,-0.782 4.049,-1.174 6.433,-1.174 2.178,0 4.221,0.341 6.127,1.021 1.905,0.681 3.574,1.703 5.004,3.063 1.361,1.362 2.451,3.063 3.268,5.106 0.817,2.042 1.226,4.426 1.226,7.148 v 36.047 z m 0,-22.261 c -1.158,-0.204 -2.11,-0.306 -2.859,-0.306 -2.246,0 -4.171,0.528 -5.77,1.583 -1.6,1.056 -2.399,2.979 -2.399,5.77 0,1.976 0.476,3.574 1.43,4.799 0.952,1.226 2.28,1.838 3.982,1.838 1.77,0 3.148,-0.578 4.136,-1.736 0.986,-1.157 1.48,-2.791 1.48,-4.902 z"
   id="path668" />
	<path
   fill="#e0ac69"
   d="m 512.482,46.705 v 51.773 h -10.416 v -5.004 h -0.204 c -1.09,1.634 -2.4,2.979 -3.932,4.034 -1.532,1.055 -3.489,1.583 -5.872,1.583 -1.294,0 -2.588,-0.222 -3.88,-0.664 -1.294,-0.442 -2.451,-1.174 -3.472,-2.195 -1.021,-1.021 -1.839,-2.331 -2.451,-3.932 -0.612,-1.599 -0.919,-3.556 -0.919,-5.872 V 46.705 h 10.416 v 35.843 c 0,1.907 0.441,3.405 1.327,4.493 0.884,1.09 2.145,1.634 3.778,1.634 1.974,0 3.335,-0.613 4.085,-1.838 0.748,-1.226 1.123,-2.995 1.123,-5.31 V 46.705 Z"
   id="path670" />
	<path
   fill="#e0ac69"
   d="M 521.06,46.705 V 30.979 h 10.416 v 15.726 h 6.433 v 8.169 h -6.433 v 28.695 c 0,1.225 0.118,2.179 0.357,2.859 0.237,0.682 0.628,1.192 1.174,1.532 0.544,0.342 1.208,0.546 1.991,0.613 0.782,0.069 1.752,0.102 2.91,0.102 v 9.803 h -4.288 c -2.384,0 -4.376,-0.374 -5.975,-1.123 -1.6,-0.749 -2.876,-1.701 -3.829,-2.859 -0.954,-1.157 -1.651,-2.467 -2.094,-3.932 -0.443,-1.463 -0.663,-2.875 -0.663,-4.238 V 54.875 h -5.208 v -8.169 h 5.209 z"
   id="path672" />
	<path
   fill="#e0ac69"
   d="M 541.891,36.188 V 25.771 h 10.416 v 10.416 h -10.416 z m 0,62.29 V 46.705 h 10.416 v 51.773 z"
   id="path674" />
	<path
   fill="#e0ac69"
   d="M 562.21,98.478 V 54.875 h -5.105 v -8.169 h 5.105 V 39.66 c 0,-2.518 0.373,-4.646 1.123,-6.382 0.749,-1.736 1.77,-3.182 3.063,-4.34 1.226,-1.157 2.638,-1.974 4.238,-2.451 1.599,-0.476 3.25,-0.715 4.952,-0.715 h 4.8 v 9.803 h -4.697 c -2.042,0 -3.063,1.192 -3.063,3.574 v 7.557 h 7.761 v 8.169 h -7.761 V 98.479 H 562.21 Z"
   id="path676" />
	<path
   fill="#e0ac69"
   d="m 614.697,46.705 v 51.773 h -10.416 v -5.004 h -0.204 c -1.09,1.634 -2.4,2.979 -3.932,4.034 -1.532,1.055 -3.489,1.583 -5.872,1.583 -1.294,0 -2.588,-0.222 -3.88,-0.664 -1.294,-0.442 -2.451,-1.174 -3.472,-2.195 -1.021,-1.021 -1.839,-2.331 -2.451,-3.932 -0.612,-1.599 -0.919,-3.556 -0.919,-5.872 V 46.705 h 10.416 v 35.843 c 0,1.907 0.441,3.405 1.327,4.493 0.884,1.09 2.145,1.634 3.778,1.634 1.974,0 3.335,-0.613 4.085,-1.838 0.748,-1.226 1.123,-2.995 1.123,-5.31 V 46.705 Z"
   id="path678" />
	<path
   fill="#e0ac69"
   d="m 622.66,25.771 h 10.416 v 58.104 c 0,1.975 0.357,3.319 1.072,4.034 0.715,0.715 2.059,1.174 4.034,1.378 v 9.803 c -2.384,0 -4.528,-0.188 -6.434,-0.562 -1.907,-0.374 -3.541,-1.106 -4.901,-2.196 -1.363,-1.021 -2.4,-2.467 -3.115,-4.34 -0.715,-1.872 -1.072,-4.34 -1.072,-7.403 z"
   id="path680" />
</g>
<text
   xml:space="preserve"
   style="font-style:normal;font-variant:normal;font-weight:bold;font-stretch:normal;font-size:100.112px;line-height:1.25;font-family:D-DIN;-inkscape-font-specification:'D-DIN, Bold';font-variant-ligatures:normal;font-variant-caps:normal;font-variant-numeric:normal;font-variant-east-asian:normal;fill:#e0ac69;fill-opacity:1;stroke-width:1"
   x="381.66708"
   y="97.075195"
   id="text113066"
   transform="scale(0.94647459,1.0565524)"><tspan
     sodipodi:role="line"
     id="tspan113064"
     x="381.66708"
     y="97.075195"
     style="font-style:normal;font-variant:normal;font-weight:bold;font-stretch:condensed;font-size:100.112px;font-family:'D-DIN Condensed';-inkscape-font-specification:'D-DIN Condensed, Bold Condensed';font-variant-ligatures:normal;font-variant-caps:normal;font-variant-numeric:normal;font-variant-east-asian:normal;fill:#e0ac69;fill-opacity:1;stroke-width:1">beauty</tspan></text><text
   xml:space="preserve"
   style="font-style:normal;font-variant:normal;font-weight:bold;font-stretch:normal;font-size:100.112px;line-height:1.25;font-family:D-DIN;-inkscape-font-specification:'D-DIN, Bold';font-variant-ligatures:normal;font-variant-caps:normal;font-variant-numeric:normal;font-variant-east-asian:normal;fill:#8d5524;fill-opacity:1;stroke-width:1"
   x="138.99084"
   y="96.950912"
   id="text113066-7"
   transform="scale(0.94647459,1.0565524)"><tspan
     sodipodi:role="line"
     id="tspan113064-5"
     x="138.99084"
     y="96.950912"
     style="font-style:normal;font-variant:normal;font-weight:bold;font-stretch:condensed;font-size:100.112px;font-family:'D-DIN Condensed';-inkscape-font-specification:'D-DIN Condensed, Bold Condensed';font-variant-ligatures:normal;font-variant-caps:normal;font-variant-numeric:normal;font-variant-east-asian:normal;fill:#8d5524;fill-opacity:1;stroke-width:1">hidden</tspan></text></svg>
